<?xml version="1.0" encoding="utf-8"?>
<!-- Generator: Adobe Illustrator 24.1.1, SVG Export Plug-In . SVG Version: 6.00 Build 0)  -->
<svg version="1.1" id="Layer_1" xmlns="http://www.w3.org/2000/svg" xmlns:xlink="http://www.w3.org/1999/xlink" x="0px" y="0px"
	 viewBox="0 0 512 512" style="enable-background:new 0 0 512 512;" xml:space="preserve">
<g id="XMLID_1_">
	<path id="XMLID_5_" d="M256,34.4c59.6,0,114.5,23.3,156.4,65.2c41.9,41.9,65.2,97.7,65.2,156.4s-23.3,114.5-65.2,156.4
		c-41.9,41.9-97.7,65.2-156.4,65.2s-114.5-23.3-156.4-65.2S34.4,314.6,34.4,256S57.7,141.5,99.6,99.6S196.4,34.4,256,34.4 M256,0
		C114.5,0,0,114.5,0,256s114.5,256,256,256s256-114.5,256-256S397.5,0,256,0z"/>
</g>
</svg>
